<svg width="72" height="64" viewBox="0 0 72 64" fill="none" xmlns="http://www.w3.org/2000/svg">
<path d="M39.9167 18.8334C39.9167 20.9965 38.1631 22.75 36 22.75C33.8369 22.75 32.0833 20.9965 32.0833 18.8334C32.0833 16.6702 33.8369 14.9167 36 14.9167C38.1631 14.9167 39.9167 16.6702 39.9167 18.8334Z" stroke="black" stroke-width="1.5" stroke-linecap="round"/>
<path d="M39.4518 18.625C39.8164 17.9934 40.4171 17.5325 41.1216 17.3437C41.8261 17.1549 42.5767 17.2538 43.2083 17.6184C43.84 17.9831 44.3009 18.5838 44.4896 19.2882C44.6784 19.9927 44.5796 20.7434 44.2149 21.375C43.8502 22.0066 43.2496 22.4675 42.5451 22.6563C41.8406 22.8451 41.09 22.7462 40.4583 22.3816C39.8267 22.0169 39.3658 21.4162 39.177 20.7118C38.9883 20.0073 39.0871 19.2566 39.4518 18.625L39.4518 18.625Z" stroke="black" stroke-width="1.5"/>
<path d="M27.7851 18.625C28.1498 17.9934 28.7504 17.5325 29.4549 17.3437C30.1594 17.1549 30.91 17.2538 31.5417 17.6184C32.1733 17.9831 32.6342 18.5838 32.823 19.2882C33.0117 19.9927 32.9129 20.7434 32.5482 21.375C32.1836 22.0066 31.5829 22.4675 30.8784 22.6563C30.1739 22.8451 29.4233 22.7462 28.7917 22.3816C28.16 22.0169 27.6991 21.4162 27.5104 20.7118C27.3216 20.0073 27.4204 19.2566 27.7851 18.625L27.7851 18.625Z" stroke="black" stroke-width="1.5"/>
<path d="M41.6952 30.5L40.96 30.6481L41.0812 31.25H41.6952V30.5ZM46.2346 29.4006L46.9475 29.1678L46.9475 29.1678L46.2346 29.4006ZM39.2443 26.6623L38.7907 26.065L37.9232 26.7239L38.8482 27.2991L39.2443 26.6623ZM45.3672 29.75H41.6952V31.25H45.3672V29.75ZM45.5216 29.6334C45.529 29.6562 45.527 29.6664 45.5265 29.6687C45.5257 29.6727 45.5232 29.6808 45.514 29.6922C45.4948 29.7159 45.4472 29.75 45.3672 29.75V31.25C46.3851 31.25 47.3204 30.31 46.9475 29.1678L45.5216 29.6334ZM41.8333 26.5833C44.1152 26.5833 45.0969 28.3325 45.5216 29.6334L46.9475 29.1678C46.4714 27.7094 45.1431 25.0833 41.8333 25.0833V26.5833ZM39.6979 27.2595C40.2178 26.8647 40.9032 26.5833 41.8333 26.5833V25.0833C40.5703 25.0833 39.5673 25.4751 38.7907 26.065L39.6979 27.2595ZM38.8482 27.2991C40.2041 28.1425 40.7476 29.5936 40.96 30.6481L42.4305 30.3519C42.1853 29.1346 41.5133 27.1902 39.6404 26.0254L38.8482 27.2991Z" fill="black"/>
<path d="M32.7557 26.6623L33.1518 27.2991L34.0768 26.7239L33.2093 26.065L32.7557 26.6623ZM25.7654 29.4006L26.4784 29.6334V29.6334L25.7654 29.4006ZM30.3047 30.5V31.25H30.9187L31.04 30.6481L30.3047 30.5ZM30.1667 26.5833C31.0968 26.5833 31.7822 26.8646 32.3021 27.2595L33.2093 26.065C32.4327 25.4751 31.4297 25.0833 30.1667 25.0833V26.5833ZM26.4784 29.6334C26.9031 28.3325 27.8848 26.5833 30.1667 26.5833V25.0833C26.857 25.0833 25.5286 27.7094 25.0525 29.1678L26.4784 29.6334ZM26.6328 29.75C26.5527 29.75 26.5052 29.7159 26.486 29.6922C26.4768 29.6808 26.4743 29.6727 26.4735 29.6687C26.473 29.6664 26.4709 29.6562 26.4784 29.6334L25.0525 29.1678C24.6796 30.31 25.6149 31.25 26.6328 31.25V29.75ZM30.3047 29.75H26.6328V31.25H30.3047V29.75ZM31.04 30.6481C31.2523 29.5936 31.7958 28.1424 33.1518 27.2991L32.3596 26.0254C30.4866 27.1902 29.8147 29.1346 29.5695 30.3519L31.04 30.6481Z" fill="black"/>
<path d="M36 25.8333C40.305 25.8333 41.4329 29.0104 41.7284 30.6752C41.8249 31.219 41.3856 31.6666 40.8333 31.6666H31.1667C30.6144 31.6666 30.175 31.219 30.2716 30.6752C30.5671 29.0104 31.695 25.8333 36 25.8333Z" stroke="black" stroke-width="1.5" stroke-linecap="round"/>
<path d="M14.7773 41.52H15.9773C15.9773 45.435 14.6273 49.035 9.85734 51.435L9.15234 50.475C13.3373 48.375 14.7773 45.36 14.7773 41.655V41.52ZM9.88734 41.52H15.5273V42.525H9.88734V41.52ZM14.7023 44.88V45.825L9.40734 46.32L9.19734 45.24L14.7023 44.88ZM19.0523 40.11H20.2973V53.67H19.0523V40.11ZM15.9473 45.54H19.6523V46.575H15.9473V45.54ZM26.0562 48.285H27.3012V53.775H26.0562V48.285ZM30.8712 48.285H32.1162V53.775H30.8712V48.285ZM22.9362 47.955H35.2362V48.975H22.9362V47.955ZM24.4962 40.845H33.6462V46.125H24.4962V40.845ZM32.4312 41.835H25.7262V45.135H32.4312V41.835ZM46.605 40.11H47.85V53.67H46.605V40.11ZM37.605 41.43H38.835V49.83H37.605V41.43ZM37.605 49.095H38.715C40.77 49.095 42.915 48.945 45.21 48.465L45.36 49.53C43.005 50.01 40.86 50.175 38.715 50.175H37.605V49.095ZM51.4038 49.38H52.4838C55.0188 49.38 56.7888 49.305 58.8738 48.96L58.9938 49.965C56.8638 50.34 55.0638 50.415 52.4838 50.415H51.4038V49.38ZM51.4038 41.34H57.9738V42.375H52.6338V49.74H51.4038V41.34ZM52.3338 45.135H57.4788V46.14H52.3338V45.135ZM60.4188 40.11H61.6638V53.67H60.4188V40.11Z" fill="black"/>
</svg>
