<svg width="45" height="45" viewBox="0 0 45 45" fill="none" xmlns="http://www.w3.org/2000/svg">
<path d="M43.0993 3.23736L41.7621 1.89933C39.2264 -0.633484 35.1224 -0.632733 32.5867 1.89933L5.56447 28.924L0.20878 42.9283C-0.419714 44.5858 0.419527 45.4206 2.07176 44.7891L16.0779 39.4385L43.0993 12.4131C45.6351 9.88101 45.6321 5.77317 43.0993 3.23736ZM26.1278 10.352L28.0087 12.2323L9.43593 30.8073L7.55495 28.9255L26.1278 10.352ZM29.0032 13.2276L31.7745 15.9997L13.2024 34.5738L10.4312 31.8025L29.0032 13.2276ZM6.76971 41.4905L3.51325 38.2309L6.66396 30.025L14.9731 38.3329L6.76971 41.4905ZM16.0779 37.4502L14.1984 35.5684L32.7697 16.9942L34.6507 18.876L16.0779 37.4502ZM35.7344 17.7922L27.2107 9.26975L29.331 7.1487L37.8546 15.6711L35.7344 17.7922Z" fill="white"/>
</svg>
