<svg width="72" height="64" viewBox="0 0 72 64" fill="none" xmlns="http://www.w3.org/2000/svg">
<path d="M44.75 19.5C44.75 19.0858 44.4142 18.75 44 18.75C43.5858 18.75 43.25 19.0858 43.25 19.5H44.75ZM28.75 19.5C28.75 19.0858 28.4142 18.75 28 18.75C27.5858 18.75 27.25 19.0858 27.25 19.5H28.75ZM33 31.5L33 32.25L33.0001 32.25L33 31.5ZM28.8787 30.6213L28.3483 31.1517L28.3483 31.1517L28.8787 30.6213ZM43.1213 30.6213L43.6517 31.1517L43.6517 31.1517L43.1213 30.6213ZM39 31.5L38.9999 32.25H39V31.5ZM38.75 31.5H38C38 31.9142 38.3357 32.25 38.7499 32.25L38.75 31.5ZM33.25 31.5L33.2501 32.25C33.6643 32.25 34 31.9142 34 31.5H33.25ZM43.25 19.5V25.5H44.75V19.5H43.25ZM28.75 25.5V19.5H27.25V25.5H28.75ZM33 30.75C32.0668 30.75 31.3213 30.7481 30.7002 30.6495C30.0945 30.5533 29.6949 30.3769 29.409 30.091L28.3483 31.1517C28.9412 31.7445 29.6872 32.0074 30.465 32.1309C31.2274 32.252 32.1032 32.25 33 32.25V30.75ZM27.25 25.5C27.25 26.893 27.2484 28.0132 27.3665 28.8918C27.4875 29.7919 27.7464 30.5498 28.3483 31.1517L29.409 30.091C29.1322 29.8143 28.9518 29.4257 28.8531 28.6919C28.7516 27.9366 28.75 26.9354 28.75 25.5H27.25ZM43.25 25.5C43.25 26.9354 43.2484 27.9366 43.1469 28.6919C43.0482 29.4257 42.8678 29.8143 42.591 30.091L43.6517 31.1517C44.2536 30.5498 44.5125 29.7919 44.6335 28.8918C44.7516 28.0132 44.75 26.893 44.75 25.5H43.25ZM39 32.25C39.8968 32.25 40.7726 32.252 41.535 32.1309C42.3128 32.0074 43.0588 31.7445 43.6517 31.1517L42.591 30.091C42.3051 30.3769 41.9055 30.5533 41.2998 30.6495C40.6787 30.7481 39.9332 30.75 39 30.75V32.25ZM38 26.75V31.5H39.5V26.75H38ZM34 31.5V26.75H32.5V31.5H34ZM36 24.75C37.1046 24.75 38 25.6454 38 26.75H39.5C39.5 24.817 37.933 23.25 36 23.25V24.75ZM36 23.25C34.067 23.25 32.5 24.817 32.5 26.75H34C34 25.6454 34.8954 24.75 36 24.75V23.25ZM33.2499 30.75L32.9999 30.75L33.0001 32.25L33.2501 32.25L33.2499 30.75ZM38.7499 32.25L38.9999 32.25L39.0001 30.75L38.7501 30.75L38.7499 32.25Z" fill="#FF471E"/>
<path d="M26 20.5092L32.3042 15.5798C34.079 14.1921 34.9664 13.4982 36 13.4982C37.0336 13.4982 37.921 14.1921 39.6958 15.5798L46 20.5092" stroke="#FF471E" stroke-width="1.5" stroke-linecap="round" stroke-linejoin="round"/>
<path d="M31.3356 48.62H40.5906V52.49H31.3356V48.62ZM39.3756 49.58H32.5656V51.545H39.3756V49.58ZM30.4806 40.22H41.3856V41.195H30.4806V40.22ZM35.9706 41.735C38.7606 41.735 40.3506 42.395 40.3506 43.655C40.3506 44.915 38.7606 45.575 35.9706 45.575C33.1656 45.575 31.5906 44.915 31.5906 43.655C31.5906 42.395 33.1656 41.735 35.9706 41.735ZM35.9706 42.605C34.0056 42.605 32.9106 42.98 32.9106 43.655C32.9106 44.33 34.0056 44.705 35.9706 44.705C37.9206 44.705 39.0156 44.33 39.0156 43.655C39.0156 42.98 37.9206 42.605 35.9706 42.605ZM35.3556 38.915H36.5856V40.85H35.3556V38.915ZM29.8356 46.61H42.0906V47.585H29.8356V46.61ZM35.3556 45.275H36.5856V47.15H35.3556V45.275Z" fill="#FF471E"/>
</svg>
