<svg width="628" height="365" viewBox="0 0 628 365" fill="none" xmlns="http://www.w3.org/2000/svg">
<path d="M230 97C230 77.6894 230 68.0341 232.533 60.2185C237.673 44.3575 250.107 31.9233 265.968 26.7829C273.784 24.25 283.439 24.25 302.75 24.25H307.25C326.561 24.25 336.216 24.25 344.032 26.7829C359.893 31.9233 372.327 44.3575 377.467 60.2185C380 68.0341 380 77.6894 380 97V97C380 116.311 380 125.966 377.467 133.782C372.327 149.643 359.893 162.077 344.032 167.217C336.216 169.75 326.561 169.75 307.25 169.75H302.75C283.439 169.75 273.784 169.75 265.968 167.217C250.107 162.077 237.673 149.643 232.533 133.782C230 125.966 230 116.311 230 97V97Z" fill="#FF471E" stroke="#D9D9D9"/>
<ellipse cx="305" cy="80.8333" rx="33.3333" ry="32.3333" fill="#FAFAFB" stroke="#D9D9D9" stroke-linecap="round"/>
<path fill-rule="evenodd" clip-rule="evenodd" d="M363.318 168.593C363.321 168.717 363.233 168.826 363.111 168.846C357.517 169.75 350.115 169.75 340 169.75H270C259.886 169.75 252.484 169.75 246.891 168.846C246.768 168.826 246.68 168.718 246.684 168.593C247.423 142.342 273.249 121.25 305.001 121.25C336.752 121.25 362.579 142.342 363.318 168.593Z" fill="#FAFAFB"/>
<path d="M246.891 168.846L246.811 169.339L246.891 168.846ZM246.684 168.593L247.183 168.607L246.684 168.593ZM363.111 168.846L363.191 169.339L363.111 168.846ZM363.318 168.593L362.818 168.607L363.318 168.593ZM363.031 168.352C357.487 169.248 350.133 169.25 340 169.25V170.25C350.098 170.25 357.548 170.252 363.191 169.339L363.031 168.352ZM340 169.25H270V170.25H340V169.25ZM270 169.25C259.868 169.25 252.514 169.248 246.97 168.352L246.811 169.339C252.453 170.252 259.903 170.25 270 170.25V169.25ZM247.183 168.607C247.913 142.705 273.434 121.75 305.001 121.75V120.75C273.064 120.75 246.933 141.979 246.184 168.579L247.183 168.607ZM305.001 121.75C336.568 121.75 362.089 142.705 362.818 168.607L363.818 168.579C363.069 141.979 336.937 120.75 305.001 120.75V121.75ZM246.97 168.352C247.101 168.373 247.187 168.487 247.183 168.607L246.184 168.579C246.173 168.949 246.435 169.279 246.811 169.339L246.97 168.352ZM363.191 169.339C363.566 169.279 363.828 168.948 363.818 168.579L362.818 168.607C362.815 168.487 362.901 168.373 363.031 168.352L363.191 169.339Z" fill="#D9D9D9"/>
<path d="M13.6016 256.24H16.2816V274.82H13.6016V256.24ZM6.30156 257.54C9.10156 257.54 11.1616 260.1 11.1616 264.14C11.1616 268.22 9.10156 270.78 6.30156 270.78C3.50156 270.78 1.44156 268.22 1.44156 264.14C1.44156 260.1 3.50156 257.54 6.30156 257.54ZM6.30156 259.96C4.92156 259.96 3.98156 261.42 3.98156 264.14C3.98156 266.9 4.92156 268.38 6.30156 268.38C7.68156 268.38 8.60156 266.9 8.60156 264.14C8.60156 261.42 7.68156 259.96 6.30156 259.96ZM19.3 265.6H36.08V267.7H19.3V265.6ZM21.36 256.6H34.04V261.56H24.02V263.58H21.38V259.68H31.42V258.62H21.36V256.6ZM21.38 262.6H34.4V264.62H21.38V262.6ZM21.42 268.82H34.14V274.58H21.42V268.82ZM31.52 270.9H24.02V272.48H31.52V270.9Z" fill="black"/>
<path d="M14.0423 330.26H16.7023V348.78H14.0423V330.26ZM10.4623 337.36H15.3223V339.52H10.4623V337.36ZM7.96234 332.18H10.5823C10.5823 337.8 8.80234 342.38 2.38234 345.6L0.982344 343.52C6.22234 340.92 7.96234 337.56 7.96234 332.66V332.18ZM1.86234 332.18H9.36234V334.28H1.86234V332.18ZM26.4608 332.32H28.7608V332.86C28.7608 336.12 26.1008 338.78 21.4008 339.42L20.4208 337.34C24.5008 336.84 26.4608 334.76 26.4608 332.86V332.32ZM27.2208 332.32H29.5208V332.86C29.5208 334.76 31.4808 336.84 35.5608 337.34L34.6008 339.42C29.8808 338.78 27.2208 336.12 27.2208 332.86V332.32ZM26.6008 342H29.2408V348.8H26.6008V342ZM19.6208 340.48H36.3608V342.6H19.6208V340.48ZM21.1008 331.2H34.8408V333.3H21.1008V331.2ZM42.4592 333.18H44.5792V335.26C44.5792 339.54 42.8392 343.72 39.3592 345.3L37.8592 343.2C40.9592 341.82 42.4592 338.4 42.4592 335.26V333.18ZM43.0592 333.18H45.1592V335.26C45.1592 338.26 46.6392 341.46 49.7392 342.74L48.2992 344.84C44.7792 343.32 43.0592 339.38 43.0592 335.26V333.18ZM38.5992 332.04H48.9792V334.22H38.5992V332.04ZM50.6992 330.26H53.3792V348.78H50.6992V330.26Z" fill="black"/>
<path d="M77.5 250C77.5 244.753 81.7533 240.5 87 240.5H618C623.247 240.5 627.5 244.753 627.5 250V280C627.5 285.247 623.247 289.5 618 289.5H87C81.7533 289.5 77.5 285.247 77.5 280V250Z" fill="white" stroke="#D9D9D9"/>
<path d="M531.902 256.24H534.582V274.82H531.902V256.24ZM524.602 257.54C527.402 257.54 529.462 260.1 529.462 264.14C529.462 268.22 527.402 270.78 524.602 270.78C521.802 270.78 519.742 268.22 519.742 264.14C519.742 260.1 521.802 257.54 524.602 257.54ZM524.602 259.96C523.222 259.96 522.282 261.42 522.282 264.14C522.282 266.9 523.222 268.38 524.602 268.38C525.982 268.38 526.902 266.9 526.902 264.14C526.902 261.42 525.982 259.96 524.602 259.96ZM544.621 256.56H546.901V257.12C546.901 260.42 544.161 263.12 539.401 263.78L538.421 261.7C542.581 261.2 544.621 259.06 544.621 257.12V256.56ZM545.061 256.56H547.341V257.12C547.341 259.06 549.381 261.2 553.521 261.7L552.561 263.78C547.801 263.12 545.061 260.4 545.061 257.12V256.56ZM537.601 264.76H554.341V266.86H537.601V264.76ZM545.941 268.08C549.941 268.08 552.361 269.3 552.361 271.44C552.361 273.6 549.941 274.8 545.941 274.8C541.921 274.8 539.501 273.6 539.501 271.44C539.501 269.3 541.921 268.08 545.941 268.08ZM545.941 270.08C543.461 270.08 542.201 270.52 542.201 271.44C542.201 272.38 543.461 272.8 545.941 272.8C548.421 272.8 549.681 272.38 549.681 271.44C549.681 270.52 548.421 270.08 545.941 270.08ZM555.999 265.7H572.739V267.82H555.999V265.7ZM558.019 272.34H570.859V274.46H558.019V272.34ZM558.019 269.06H560.679V273.02H558.019V269.06ZM564.379 256.8C568.399 256.8 571.079 258.26 571.079 260.62C571.079 262.98 568.399 264.44 564.379 264.44C560.339 264.44 557.679 262.98 557.679 260.62C557.679 258.26 560.339 256.8 564.379 256.8ZM564.379 258.92C561.879 258.92 560.419 259.5 560.419 260.62C560.419 261.76 561.879 262.32 564.379 262.32C566.879 262.32 568.339 261.76 568.339 260.62C568.339 259.5 566.879 258.92 564.379 258.92Z" fill="#646464"/>
<path d="M594 273H610M594 273V269L602 261M594 273L598 273L606 265M602 261L604.869 258.131L604.87 258.13C605.265 257.735 605.463 257.537 605.691 257.463C605.892 257.398 606.108 257.398 606.309 257.463C606.537 257.537 606.734 257.735 607.129 258.129L608.869 259.869C609.265 260.265 609.463 260.463 609.537 260.691C609.602 260.892 609.602 261.108 609.537 261.309C609.463 261.537 609.265 261.735 608.87 262.131L608.869 262.131L606 265M602 261L606 265" stroke="#646464" stroke-width="2" stroke-linecap="round" stroke-linejoin="round"/>
<path d="M77.5 325C77.5 319.753 81.7533 315.5 87 315.5H618C623.247 315.5 627.5 319.753 627.5 325V355C627.5 360.247 623.247 364.5 618 364.5H87C81.7533 364.5 77.5 360.247 77.5 355V325Z" fill="white" stroke="#D9D9D9"/>
<path d="M331.331 337.04H336.211V339.18H331.331V337.04ZM326.291 332.68H328.451V335.36C328.451 340.02 326.871 344.32 323.391 346.06L321.731 343.92C324.891 342.46 326.291 338.88 326.291 335.36V332.68ZM326.851 332.68H328.971V335.36C328.971 338.88 330.311 342.26 333.371 343.62L331.791 345.74C328.311 344.06 326.851 339.98 326.851 335.36V332.68ZM334.891 331.24H337.531V349.82H334.891V331.24ZM347.41 340.08H350.07V342.66H347.41V340.08ZM348.77 331.44C352.99 331.44 355.47 332.54 355.47 334.58C355.47 336.62 352.99 337.74 348.77 337.74C344.53 337.74 342.07 336.62 342.07 334.58C342.07 332.54 344.53 331.44 348.77 331.44ZM348.77 333.38C346.09 333.38 344.83 333.76 344.83 334.58C344.83 335.44 346.09 335.8 348.77 335.8C351.45 335.8 352.71 335.44 352.71 334.58C352.71 333.76 351.45 333.38 348.77 333.38ZM340.39 338.54H357.13V340.64H340.39V338.54ZM342.31 341.84H355.11V346.6H344.95V348.24H342.33V344.76H352.49V343.82H342.31V341.84ZM342.33 347.66H355.59V349.66H342.33V347.66ZM358.768 340.88H375.528V342.98H358.768V340.88ZM360.648 344.16H373.488V349.78H370.828V346.26H360.648V344.16ZM360.848 337.74H373.748V339.76H360.848V337.74ZM360.848 331.68H373.608V333.7H363.488V338.76H360.848V331.68ZM362.748 334.72H373.188V336.66H362.748V334.72ZM386.127 333.58H390.607V335.58H386.127V333.58ZM386.127 336.96H390.607V338.96H386.127V336.96ZM390.027 331.26H392.687V340.76H390.027V331.26ZM380.447 341.48H392.687V346.44H383.107V348.78H380.467V344.52H390.047V343.52H380.447V341.48ZM380.467 347.52H393.207V349.58H380.467V347.52ZM377.967 332.02H380.607V334.18H384.127V332.02H386.727V340.26H377.967V332.02ZM380.607 336.18V338.18H384.127V336.18H380.607ZM400.105 332.68H402.265V335.38C402.265 340.14 400.625 344.44 396.945 346.14L395.365 343.94C398.585 342.54 400.105 338.98 400.105 335.38V332.68ZM400.625 332.68H402.785V335.38C402.785 338.8 404.245 342.2 407.405 343.56L405.845 345.7C402.265 344.06 400.625 339.94 400.625 335.38V332.68ZM408.285 331.24H410.965V349.82H408.285V331.24ZM425.653 340.56H428.313V343.82H425.653V340.56ZM418.613 339.68H435.353V341.78H418.613V339.68ZM426.953 343.1C430.953 343.1 433.373 344.3 433.373 346.44C433.373 348.58 430.953 349.78 426.953 349.78C422.933 349.78 420.513 348.58 420.513 346.44C420.513 344.3 422.933 343.1 426.953 343.1ZM426.953 345.1C424.473 345.1 423.213 345.52 423.213 346.44C423.213 347.34 424.473 347.78 426.953 347.78C429.433 347.78 430.693 347.34 430.693 346.44C430.693 345.52 429.433 345.1 426.953 345.1ZM425.153 333H427.513V333.46C427.513 336.24 425.013 338.52 420.233 338.96L419.313 336.88C423.373 336.54 425.153 334.9 425.153 333.46V333ZM426.453 333H428.813V333.46C428.813 334.92 430.573 336.54 434.653 336.88L433.733 338.96C428.973 338.52 426.453 336.26 426.453 333.46V333ZM420.133 332.02H433.853V334.12H420.133V332.02ZM438.931 332.34H450.551V334.44H438.931V332.34ZM437.031 340.22H453.771V342.36H437.031V340.22ZM443.971 341.72H446.651V349.8H443.971V341.72ZM449.191 332.34H451.811V333.98C451.811 335.98 451.811 338.22 451.091 341.5L448.471 341.2C449.191 338.1 449.191 335.9 449.191 333.98V332.34ZM471.958 331.28H474.618V345.12H471.958V331.28ZM473.858 336.92H477.078V339.1H473.858V336.92ZM460.038 333.2H470.938V335.28H460.038V333.2ZM465.498 335.94C468.158 335.94 470.038 337.4 470.038 339.52C470.038 341.64 468.158 343.08 465.498 343.08C462.818 343.08 460.938 341.64 460.938 339.52C460.938 337.4 462.818 335.94 465.498 335.94ZM465.498 337.96C464.318 337.96 463.498 338.52 463.498 339.52C463.498 340.52 464.318 341.06 465.498 341.06C466.678 341.06 467.498 340.52 467.498 339.52C467.498 338.52 466.678 337.96 465.498 337.96ZM464.158 331.24H466.818V334.22H464.158V331.24ZM462.678 347.34H475.278V349.46H462.678V347.34ZM462.678 344.08H465.338V348.26H462.678V344.08ZM490.357 331.26H493.017V341.98H490.357V331.26ZM492.277 335.58H495.477V337.76H492.277V335.58ZM485.057 332.46H487.917C487.917 337.44 484.837 340.9 479.377 342.42L478.297 340.3C482.757 339.08 485.057 336.66 485.057 333.8V332.46ZM479.177 332.46H486.677V334.6H479.177V332.46ZM487.017 342.22C490.757 342.22 493.217 343.68 493.217 346C493.217 348.34 490.757 349.8 487.017 349.8C483.277 349.8 480.777 348.34 480.777 346C480.777 343.68 483.277 342.22 487.017 342.22ZM487.017 344.28C484.757 344.28 483.417 344.88 483.417 346C483.417 347.14 484.757 347.74 487.017 347.74C489.277 347.74 490.617 347.14 490.617 346C490.617 344.88 489.277 344.28 487.017 344.28ZM510.215 331.26H512.735V349.78H510.215V331.26ZM507.735 338.38H510.815V340.52H507.735V338.38ZM506.075 331.58H508.535V348.9H506.075V331.58ZM497.355 343.42H498.655C500.935 343.42 502.835 343.34 505.035 342.94L505.235 345.1C502.995 345.54 501.035 345.6 498.655 345.6H497.355V343.42ZM497.355 333.4H504.195V335.54H499.995V344.46H497.355V333.4ZM515.254 345.58H532.014V347.74H515.254V345.58ZM522.274 342.08H524.934V346.46H522.274V342.08ZM517.134 332.46H530.134V338.62H519.814V341.74H517.174V336.54H527.494V334.56H517.134V332.46ZM517.174 340.68H530.554V342.82H517.174V340.68ZM538.42 345.443V343.021L544.492 333.455H546.58V336.807H545.344L541.516 342.865V342.979H550.146V345.443H538.42ZM545.401 348V344.705L545.458 343.632V333.455H548.342V348H545.401ZM558.327 333.455V348H555.252V336.374H555.167L551.836 338.462V335.734L555.437 333.455H558.327ZM567.367 348.199C566.619 348.194 565.897 348.069 565.201 347.822C564.509 347.576 563.889 347.176 563.34 346.622C562.791 346.068 562.355 345.334 562.033 344.42C561.716 343.507 561.557 342.384 561.557 341.054C561.562 339.832 561.702 338.741 561.976 337.78C562.256 336.814 562.653 335.995 563.169 335.322C563.69 334.65 564.313 334.139 565.037 333.788C565.762 333.433 566.574 333.256 567.473 333.256C568.444 333.256 569.301 333.445 570.044 333.824C570.788 334.198 571.384 334.707 571.834 335.351C572.289 335.995 572.563 336.717 572.658 337.517H569.625C569.507 337.01 569.258 336.613 568.88 336.324C568.501 336.035 568.032 335.891 567.473 335.891C566.526 335.891 565.807 336.303 565.314 337.126C564.827 337.95 564.578 339.07 564.569 340.486H564.668C564.886 340.055 565.179 339.688 565.549 339.385C565.923 339.077 566.346 338.843 566.82 338.682C567.298 338.516 567.802 338.433 568.333 338.433C569.194 338.433 569.962 338.637 570.634 339.044C571.306 339.446 571.837 340 572.225 340.706C572.613 341.411 572.807 342.219 572.807 343.128C572.807 344.113 572.578 344.989 572.118 345.756C571.664 346.523 571.027 347.124 570.208 347.56C569.393 347.991 568.446 348.204 567.367 348.199ZM567.353 345.784C567.826 345.784 568.25 345.67 568.624 345.443C568.998 345.216 569.292 344.908 569.505 344.52C569.718 344.132 569.824 343.696 569.824 343.213C569.824 342.73 569.718 342.297 569.505 341.913C569.296 341.53 569.007 341.224 568.638 340.997C568.269 340.77 567.847 340.656 567.374 340.656C567.019 340.656 566.69 340.723 566.387 340.855C566.088 340.988 565.826 341.172 565.598 341.409C565.376 341.646 565.201 341.92 565.073 342.233C564.945 342.541 564.881 342.87 564.881 343.22C564.881 343.689 564.988 344.117 565.201 344.506C565.418 344.894 565.712 345.204 566.081 345.436C566.455 345.668 566.879 345.784 567.353 345.784Z" fill="#646464"/>
<path d="M594 348H610M594 348V344L602 336M594 348L598 348L606 340M602 336L604.869 333.131L604.87 333.13C605.265 332.735 605.463 332.537 605.691 332.463C605.892 332.398 606.108 332.398 606.309 332.463C606.537 332.537 606.734 332.735 607.129 333.129L608.869 334.869C609.265 335.265 609.463 335.463 609.537 335.691C609.602 335.892 609.602 336.108 609.537 336.309C609.463 336.537 609.265 336.735 608.87 337.131L608.869 337.131L606 340M602 336L606 340" stroke="#646464" stroke-width="2" stroke-linecap="round" stroke-linejoin="round"/>
<ellipse cx="369" cy="160.603" rx="18.75" ry="18.4524" fill="#D7D7D7"/>
<path d="M369 166.754L369 154.452" stroke="black" stroke-opacity="0.99" stroke-width="1.2" stroke-linecap="square"/>
<path d="M375.25 160.603L362.75 160.603" stroke="black" stroke-opacity="0.99" stroke-width="1.2" stroke-linecap="square"/>
</svg>
