<svg width="72" height="64" viewBox="0 0 72 64" fill="none" xmlns="http://www.w3.org/2000/svg">
<path d="M26.25 22.5C26.25 17.1152 30.6152 12.75 36 12.75V12.75C41.3848 12.75 45.75 17.1152 45.75 22.5V22.5C45.75 27.8848 41.3848 32.25 36 32.25V32.25C30.6152 32.25 26.25 27.8848 26.25 22.5V22.5Z" stroke="black" stroke-width="1.5"/>
<circle cx="36" cy="20.3333" r="4.33333" fill="black"/>
<path fill-rule="evenodd" clip-rule="evenodd" d="M42.7475 29.2804C42.8054 29.3769 42.7877 29.5002 42.706 29.5776C40.9585 31.234 38.5979 32.25 36 32.25C33.4022 32.25 31.0417 31.234 29.2941 29.5777C29.2124 29.5003 29.1947 29.377 29.2526 29.2805C30.511 27.184 33.0601 25.75 36.0001 25.75C38.94 25.75 41.4892 27.184 42.7475 29.2804Z" fill="black"/>
<path d="M25.6609 41.5909H27.2376L30.945 50.6463H31.0728L34.7802 41.5909H36.3569V52.5H35.1211V44.2116H35.0146L31.6055 52.5H30.4123L27.0032 44.2116H26.8967V52.5H25.6609V41.5909ZM38.0681 41.5909H39.5809L42.6064 46.6832H42.7343L45.7599 41.5909H47.2726L43.3309 48.0043V52.5H42.0099V48.0043L38.0681 41.5909Z" fill="black"/>
</svg>
