<svg width="36" height="36" viewBox="0 0 36 36" fill="none" xmlns="http://www.w3.org/2000/svg">
<path fill-rule="evenodd" clip-rule="evenodd" d="M17.9999 2H17.9298C17.0677 1.99997 16.5583 1.99995 16.1178 2.04334C11.8448 2.46419 8.46413 5.84485 8.04328 10.1178C7.99989 10.5584 7.99991 11.0677 7.99994 11.9299L7.99994 12V14.7465C7.99994 15.8006 7.9981 16.2421 7.94397 16.6676C7.85921 17.3338 7.67902 17.9844 7.40894 18.5993C7.23643 18.992 7.01088 19.3715 6.46854 20.2754L5.45988 21.9565L5.42236 22.0191C5.05177 22.6366 4.71733 23.1938 4.52311 23.6621C4.31961 24.1529 4.15087 24.8232 4.52581 25.4854C4.90075 26.1476 5.56237 26.3478 6.08787 26.4258C6.58938 26.5002 7.23929 26.5001 7.95948 26.5H7.9595L8.03238 26.5H27.9676L28.0404 26.5H28.0405C28.7607 26.5001 29.4106 26.5002 29.9121 26.4258C30.4376 26.3478 31.0992 26.1476 31.4741 25.4854C31.8491 24.8232 31.6803 24.1528 31.4768 23.6621C31.2826 23.1938 30.9482 22.6365 30.5776 22.019L30.54 21.9565L29.5314 20.2754C28.989 19.3715 28.7635 18.992 28.591 18.5993C28.3209 17.9844 28.1407 17.3338 28.0559 16.6675C28.0018 16.242 27.9999 15.8006 27.9999 14.7464V13.5654C27.9999 13.3483 27.9999 13.2397 27.9357 13.1949C27.8716 13.1502 27.7629 13.1902 27.5456 13.2702C27.1418 13.4188 26.7054 13.5 26.25 13.5V13.5C26.1609 13.5 26.1163 13.5 26.0859 13.5144C26.0531 13.5299 26.0298 13.5532 26.0143 13.5859C25.9999 13.6163 25.9999 13.6582 25.9999 13.742V14.7464L25.9999 14.8178V14.818C25.9999 15.7798 25.9999 16.3538 26.0719 16.92C26.1809 17.7766 26.4126 18.613 26.7598 19.4036C26.9894 19.9262 27.2847 20.4183 27.7796 21.2432L27.8164 21.3044L28.8251 22.9855C29.2453 23.686 29.4991 24.1141 29.6294 24.4283V24.4283C29.6328 24.4367 29.6275 24.4461 29.6186 24.4474V24.4474C29.2821 24.4973 28.7845 24.5 27.9676 24.5H8.03238C7.21549 24.5 6.71784 24.4973 6.38137 24.4474V24.4474C6.37242 24.4461 6.36711 24.4367 6.37055 24.4283V24.4283C6.50085 24.1141 6.7546 23.686 7.17488 22.9855L8.18354 21.3044L8.22026 21.2432C8.71522 20.4183 9.01055 19.9261 9.24008 19.4036C9.58733 18.613 9.81901 17.7766 9.92798 16.92C10 16.3538 9.99998 15.7798 9.99994 14.8179L9.99994 14.7465V12C9.99994 11.0475 10.0012 10.6438 10.0336 10.3139C10.361 6.99044 12.9904 4.36104 16.3138 4.03371C16.6437 4.00122 17.0475 4 17.9999 4C18.9524 4 19.3562 4.00122 19.6861 4.03371C21.4764 4.21004 23.0653 5.0544 24.2014 6.31542C24.2826 6.40551 24.3232 6.45056 24.3727 6.46003C24.4222 6.46951 24.478 6.44187 24.5898 6.3866C25.0903 6.1391 25.6539 6 26.25 6V6C26.348 6 26.4101 5.89044 26.3536 5.81043C24.8854 3.73208 22.5588 2.30697 19.8821 2.04334C19.4416 1.99995 18.9322 1.99997 18.0701 2H17.9999ZM29.6963 24.6368C29.6964 24.6373 29.6965 24.6376 29.6965 24.6376C29.6967 24.6377 29.6966 24.6354 29.6959 24.6303C29.696 24.6335 29.6962 24.6357 29.6963 24.6368ZM29.826 24.4005C29.83 24.3982 29.8324 24.3972 29.8326 24.3973C29.8328 24.3974 29.8307 24.3985 29.826 24.4005ZM6.16736 24.3973C6.16754 24.3972 6.16992 24.3982 6.17397 24.4005C6.16921 24.3985 6.16719 24.3974 6.16736 24.3973ZM6.30409 24.6303C6.30396 24.6349 6.30358 24.6375 6.30342 24.6376C6.30326 24.6377 6.30333 24.6354 6.30409 24.6303Z" fill="black" fill-opacity="0.5"/>
<circle cx="26.25" cy="9.75" r="2.25" fill="#FF471E"/>
<path d="M21.6 27C21.6828 27 21.7505 27.0672 21.7453 27.1499C21.699 27.891 21.3106 28.5941 20.6517 29.1213C19.9484 29.6839 18.9946 30 18 30C17.0054 30 16.0516 29.6839 15.3484 29.1213C14.6894 28.5941 14.301 27.891 14.2547 27.1499C14.2495 27.0672 14.3172 27 14.4 27L18 27L21.6 27Z" fill="black"/>
</svg>
