<svg width="64" height="64" viewBox="0 0 64 64" fill="none" xmlns="http://www.w3.org/2000/svg">
<path d="M8 32C8 18.7452 18.7452 8 32 8V8C45.2548 8 56 18.7452 56 32V32C56 45.2548 45.2548 56 32 56V56C18.7452 56 8 45.2548 8 32V32Z" fill="#FF471E" stroke="#D9D9D9"/>
<ellipse cx="32" cy="26.6667" rx="10.6667" ry="10.6667" fill="#FAFAFB" stroke="#D9D9D9" stroke-linecap="round"/>
<path fill-rule="evenodd" clip-rule="evenodd" d="M49.5355 50.5017C49.5765 50.5978 49.5521 50.709 49.4749 50.7794C46.6533 53.3525 43.0887 55.1266 39.1288 55.7538C37.5741 56 35.7161 56 32.0001 56C28.2841 56 26.426 56 24.8714 55.7538C20.9116 55.1266 17.347 53.3526 14.5255 50.7796C14.4483 50.7092 14.4239 50.598 14.4649 50.5019C17.0809 44.3738 23.9447 40 32.0002 40C40.0557 40 46.9195 44.3737 49.5355 50.5017Z" fill="#FAFAFB"/>
<path d="M39.1288 55.7538L39.207 56.2476L39.207 56.2476L39.1288 55.7538ZM24.8714 55.7538L24.7932 56.2476L24.7932 56.2476L24.8714 55.7538ZM14.5255 50.7796L14.8624 50.4102L14.5255 50.7796ZM14.4649 50.5019L14.005 50.3056L14.4649 50.5019ZM49.4749 50.7794L49.8119 51.1488L49.4749 50.7794ZM49.5355 50.5017L49.0757 50.698L49.5355 50.5017ZM49.138 50.4099C46.3869 52.9188 42.9116 54.6484 39.0506 55.2599L39.207 56.2476C43.2658 55.6048 46.9198 53.7862 49.8119 51.1488L49.138 50.4099ZM39.0506 55.2599C37.5446 55.4984 35.7352 55.5 32.0001 55.5V56.5C35.697 56.5 37.6037 56.5016 39.207 56.2476L39.0506 55.2599ZM32.0001 55.5C28.265 55.5 26.4556 55.4984 24.9496 55.2599L24.7932 56.2476C26.3965 56.5016 28.3032 56.5 32.0001 56.5V55.5ZM24.9496 55.2599C21.0887 54.6484 17.6135 52.9189 14.8624 50.4102L14.1886 51.1491C17.0806 53.7863 20.7345 55.6048 24.7932 56.2476L24.9496 55.2599ZM14.9247 50.6982C17.4511 44.7801 24.1153 40.5 32.0002 40.5V39.5C23.7741 39.5 16.7107 43.9674 14.005 50.3056L14.9247 50.6982ZM32.0002 40.5C39.8851 40.5 46.5493 44.78 49.0757 50.698L49.9954 50.3054C47.2896 43.9673 40.2263 39.5 32.0002 39.5V40.5ZM14.8624 50.4102C14.9416 50.4824 14.9676 50.5978 14.9247 50.6982L14.005 50.3056C13.8801 50.5982 13.9551 50.9361 14.1886 51.1491L14.8624 50.4102ZM49.8119 51.1488C50.0453 50.9359 50.1203 50.5979 49.9954 50.3054L49.0757 50.698C49.0328 50.5976 49.0588 50.4822 49.138 50.4099L49.8119 51.1488Z" fill="#D9D9D9"/>
</svg>
