<svg width="200" height="200" viewBox="0 0 200 200" fill="none" xmlns="http://www.w3.org/2000/svg">
<rect x="0.5" y="0.5" width="199" height="199" rx="9.5" fill="#EAEAEA" stroke="#999999" stroke-dasharray="5 5"/>
<mask id="mask0_64_783" style="mask-type:alpha" maskUnits="userSpaceOnUse" x="69" y="70" width="62" height="59">
<path d="M69.5947 78.3491C69.5947 74.5779 69.5947 72.6923 70.7663 71.5207C71.9379 70.3491 73.8235 70.3491 77.5947 70.3491H122.406C126.177 70.3491 128.062 70.3491 129.234 71.5207C130.406 72.6923 130.406 74.5779 130.406 78.3491V120.615C130.406 124.386 130.406 126.272 129.234 127.443C128.062 128.615 126.177 128.615 122.406 128.615H77.5947C73.8235 128.615 71.9379 128.615 70.7663 127.443C69.5947 126.272 69.5947 124.386 69.5947 120.615V78.3491Z" fill="black"/>
</mask>
<g mask="url(#mask0_64_783)">
<path d="M105.373 110.984L90.8148 95.7665C89.5659 94.461 88.9414 93.8083 88.1411 93.7719C87.3407 93.7355 86.6595 94.3288 85.2972 95.5154L70.2811 108.595C69.9433 108.889 69.7744 109.036 69.6846 109.234C69.5947 109.431 69.5947 109.655 69.5947 110.103V129.889C69.5947 133.847 69.5947 135.827 70.8425 137.01C72.0903 138.193 74.0668 138.088 78.0199 137.877H78.02L122.831 135.492C126.417 135.301 128.211 135.206 129.308 134.048C130.406 132.891 130.406 131.095 130.406 127.503V110.9C130.406 110.058 130.406 109.638 130.245 109.261C130.084 108.885 129.781 108.594 129.173 108.012L123.038 102.134C121.729 100.879 121.074 100.252 120.27 100.252C119.467 100.252 118.812 100.879 117.503 102.134L108.202 111.045C107.521 111.698 107.18 112.024 106.766 112.015C106.352 112.006 106.025 111.665 105.373 110.984Z" fill="#7E869E" fill-opacity="0.25"/>
</g>
<ellipse cx="79.7297" cy="80.0601" rx="6.75676" ry="6.47396" fill="#222222"/>
<path d="M127.027 73.5862V72.9862H127.627V73.5862H127.027ZM107.172 93.4413C106.933 93.6706 106.553 93.6624 106.324 93.4232C106.094 93.1839 106.102 92.8041 106.342 92.5748L107.172 93.4413ZM126.427 89.7711V73.5862H127.627V89.7711H126.427ZM127.027 74.1862H110.135V72.9862H127.027V74.1862ZM127.442 74.0194L107.172 93.4413L106.342 92.5748L126.612 73.1529L127.442 74.0194Z" fill="#222222"/>
</svg>
