<svg width="72" height="64" viewBox="0 0 72 64" fill="none" xmlns="http://www.w3.org/2000/svg">
<path d="M30.975 33C30.5175 33 30.0787 32.8183 29.7552 32.4948C29.4317 32.1713 29.25 31.7325 29.25 31.275L30 21.9H32.025L32.775 31.275C32.7752 31.508 32.7282 31.7386 32.6369 31.9529C32.5456 32.1673 32.4117 32.3609 32.2435 32.5221C32.0753 32.6833 31.8762 32.8087 31.6582 32.8909C31.4402 32.973 31.2078 33.0101 30.975 33Z" stroke="black" stroke-width="1.5" stroke-linecap="round" stroke-linejoin="round"/>
<path d="M30.975 21.9C33.1703 21.9 34.95 19.6838 34.95 16.95C34.95 14.2162 33.1703 12 30.975 12C28.7797 12 27 14.2162 27 16.95C27 19.6838 28.7797 21.9 30.975 21.9Z" stroke="black" stroke-width="1.5" stroke-linecap="round" stroke-linejoin="round"/>
<path d="M41.4 33C40.9425 33 40.5038 32.8183 40.1803 32.4948C39.8568 32.1713 39.675 31.7325 39.675 31.275L40.425 21.9H42.45L43.2 31.275C43.2003 31.508 43.1533 31.7386 43.062 31.9529C42.9706 32.1673 42.8368 32.3609 42.6686 32.5221C42.5004 32.6833 42.3013 32.8087 42.0832 32.8909C41.8652 32.973 41.6328 33.0101 41.4 33Z" stroke="black" stroke-width="1.5" stroke-linecap="round" stroke-linejoin="round"/>
<path d="M44.775 18.525C44.7554 19.427 44.3833 20.2853 43.7384 20.9162C43.0935 21.5471 42.2272 21.9002 41.325 21.9C40.4299 21.9 39.5715 21.5444 38.9385 20.9115C38.3056 20.2786 37.95 19.4201 37.95 18.525H44.775Z" stroke="black" stroke-width="1.5" stroke-linecap="round" stroke-linejoin="round"/>
<path d="M37.95 12.3V18.525" stroke="black" stroke-width="1.5" stroke-linecap="round" stroke-linejoin="round"/>
<path d="M41.325 12.3V18.375" stroke="black" stroke-width="1.5" stroke-linecap="round" stroke-linejoin="round"/>
<path d="M44.775 12.3V18.525" stroke="black" stroke-width="1.5" stroke-linecap="round" stroke-linejoin="round"/>
<path d="M16.4868 48.305H17.3868C19.0368 48.305 20.5668 48.245 22.4268 47.93L22.5318 48.95C20.6268 49.28 19.0968 49.34 17.3868 49.34H16.4868V48.305ZM16.4568 40.595H21.3018V45.32H17.7018V48.725H16.4868V44.315H20.1018V41.615H16.4568V40.595ZM26.3568 39.11H27.5568V52.67H26.3568V39.11ZM21.9468 43.97H24.1368V45.005H21.9468V43.97ZM23.6268 39.44H24.7818V51.965H23.6268V39.44ZM33.4206 40.28H34.4406V42.71C34.4406 45.83 32.7606 48.725 30.5406 49.85L29.7756 48.83C31.7856 47.87 33.4206 45.275 33.4206 42.71V40.28ZM33.6306 40.28H34.6506V42.71C34.6506 45.185 36.2706 47.675 38.2806 48.605L37.5306 49.595C35.3256 48.515 33.6306 45.725 33.6306 42.71V40.28ZM39.6906 39.095H40.9356V52.685H39.6906V39.095ZM53.5194 39.11H54.7644V52.67H53.5194V39.11ZM43.9794 40.565H51.6594V41.585H43.9794V40.565ZM43.7694 49.325L43.6194 48.26C46.1394 48.26 49.4694 48.23 52.3494 47.885L52.4244 48.8C49.4994 49.265 46.2444 49.31 43.7694 49.325ZM45.4794 41.33H46.6794V48.545H45.4794V41.33ZM48.9444 41.33H50.1594V48.545H48.9444V41.33Z" fill="black"/>
</svg>
