<svg width="161" height="115" viewBox="0 0 161 115" fill="none" xmlns="http://www.w3.org/2000/svg">
<path d="M74.07 0.26H76.59V18.78H74.07V0.26ZM71.85 7.36H74.93V9.52H71.85V7.36ZM70.09 0.54H72.57V17.94H70.09V0.54ZM63.85 3.14H65.87V4.78C65.87 9.36 64.87 13.4 61.79 15.26L60.19 13.22C62.97 11.62 63.85 8.34 63.85 4.78V3.14ZM64.39 3.14H66.43V4.78C66.43 8.04 67.37 11.12 70.13 12.56L68.61 14.58C65.49 12.9 64.39 9.08 64.39 4.78V3.14ZM60.79 2.14H69.21V4.28H60.79V2.14ZM83.2084 11.06H85.8084V15.42H83.2084V11.06ZM89.0684 11.04H91.6684V15.42H89.0684V11.04ZM78.9684 14.58H95.7284V16.74H78.9684V14.58ZM80.8484 1.46H93.8484V7.6H83.5284V10.74H80.8884V5.52H91.2084V3.56H80.8484V1.46ZM80.8884 9.62H94.2684V11.76H80.8884V9.62ZM99.4269 5.26H112.267V7.36H99.4269V5.26ZM97.3469 9.28H114.127V11.4H97.3469V9.28ZM99.4269 0.92H102.067V6.3H99.4269V0.92ZM99.2469 16.26H112.367V18.38H99.2469V16.26ZM99.2469 12.88H101.907V16.82H99.2469V12.88ZM134.134 2.54H137.334V4.7H134.134V2.54ZM134.134 6.56H137.334V8.72H134.134V6.56ZM125.534 1.26C128.394 1.26 130.574 3.14 130.574 5.76C130.574 8.36 128.394 10.24 125.534 10.24C122.674 10.24 120.494 8.36 120.494 5.76C120.494 3.14 122.674 1.26 125.534 1.26ZM125.534 3.48C124.134 3.48 123.094 4.34 123.094 5.76C123.094 7.2 124.134 8.02 125.534 8.02C126.934 8.02 127.974 7.2 127.974 5.76C127.974 4.34 126.934 3.48 125.534 3.48ZM132.294 0.26H134.954V11.06H132.294V0.26ZM128.914 11.46C132.734 11.46 135.174 12.84 135.174 15.12C135.174 17.42 132.734 18.78 128.914 18.78C125.074 18.78 122.634 17.42 122.634 15.12C122.634 12.84 125.074 11.46 128.914 11.46ZM128.914 13.56C126.554 13.56 125.274 14.06 125.274 15.12C125.274 16.2 126.554 16.7 128.914 16.7C131.274 16.7 132.534 16.2 132.534 15.12C132.534 14.06 131.274 13.56 128.914 13.56ZM139.553 2.1H147.533V4.2H139.553V2.1ZM141.933 7.4H144.553V13.68H141.933V7.4ZM146.473 2.1H149.093V3.6C149.093 5.4 149.093 7.64 148.593 10.72L145.993 10.48C146.473 7.52 146.473 5.38 146.473 3.6V2.1ZM150.673 0.26H153.333V18.78H150.673V0.26ZM152.553 7.7H155.813V9.9H152.553V7.7ZM138.853 15.04L138.613 12.9C141.873 12.9 146.193 12.84 149.833 12.38L149.973 14.32C146.233 14.96 142.073 15.04 138.853 15.04ZM11.513 24.26H14.173V37.64H11.513V24.26ZM13.413 29.3H16.633V31.48H13.413V29.3ZM0.292969 32.48H1.83297C5.85297 32.48 7.85297 32.4 10.073 31.92L10.333 34.02C8.07297 34.52 5.95297 34.62 1.83297 34.62H0.292969V32.48ZM0.292969 25.72H8.57297V27.86H2.93297V33.62H0.292969V25.72ZM2.23297 40.34H14.833V42.46H2.23297V40.34ZM2.23297 36.24H4.89297V41.42H2.23297V36.24ZM23.9914 25C26.8114 25 28.8514 26.62 28.8514 28.96C28.8514 31.26 26.8114 32.92 23.9914 32.92C21.1914 32.92 19.1514 31.26 19.1514 28.96C19.1514 26.62 21.1914 25 23.9914 25ZM23.9914 27.16C22.6514 27.16 21.6914 27.8 21.6914 28.96C21.6914 30.1 22.6514 30.74 23.9914 30.74C25.3514 30.74 26.3114 30.1 26.3114 28.96C26.3114 27.8 25.3514 27.16 23.9914 27.16ZM22.7514 34.76H25.4114V42.22H22.7514V34.76ZM30.8514 24.26H33.4914V42.78H30.8514V24.26ZM18.3714 36.16L18.0514 34C21.2914 34 25.8714 33.96 29.7914 33.36L29.9714 35.3C25.9514 36.1 21.5714 36.14 18.3714 36.16ZM37.4648 35.169C37.4648 33.4077 37.6992 31.786 38.168 30.304C38.6415 28.822 39.3635 27.4489 40.3342 26.1847H43.2248C42.8555 26.6534 42.5122 27.2263 42.195 27.9034C41.8777 28.5758 41.6007 29.3144 41.364 30.1193C41.1272 30.9242 40.9426 31.7576 40.81 32.6193C40.6774 33.4763 40.6112 34.3262 40.6112 35.169C40.6112 36.2912 40.7248 37.4252 40.9521 38.571C41.1841 39.7121 41.4966 40.7727 41.8896 41.7528C42.2873 42.733 42.7324 43.5355 43.2248 44.1605H40.3342C39.3635 42.8963 38.6415 41.5232 38.168 40.0412C37.6992 38.5592 37.4648 36.9351 37.4648 35.169ZM51.4534 25.32H53.7734V26.66C53.7734 30.68 50.9134 34.24 46.1134 35.18L44.9734 32.98C49.1534 32.26 51.4534 29.32 51.4534 26.66V25.32ZM51.9934 25.32H54.2934V26.66C54.2934 29.38 56.5734 32.26 60.7734 32.98L59.6334 35.18C54.8334 34.24 51.9934 30.74 51.9934 26.66V25.32ZM44.5934 38.36H61.3534V40.52H44.5934V38.36ZM64.4319 24.96H78.2319V27.06H64.4319V24.96ZM64.5719 30.32H78.0919V32.42H64.5719V30.32ZM66.7919 25.72H69.4519V31.22H66.7919V25.72ZM73.2119 25.72H75.8719V31.22H73.2119V25.72ZM62.9719 33.74H79.7319V35.84H62.9719V33.74ZM70.2319 34.9H72.9119V38.8H70.2319V34.9ZM64.9119 40.34H77.8919V42.46H64.9119V40.34ZM64.9119 37.24H67.5519V41.18H64.9119V37.24ZM88.1129 25.7727L83.4254 43.1875H80.8189L85.5064 25.7727H88.1129ZM98.7833 28.8H102.343V30.94H98.7833V28.8ZM102.003 24.26H104.663V34.52H102.003V24.26ZM92.4833 35.28H95.1233V36.9H102.023V35.28H104.663V42.58H92.4833V35.28ZM95.1233 38.94V40.46H102.023V38.94H95.1233ZM96.1233 25.08H98.9033C98.9033 30.18 96.4633 33.5 90.4833 35.26L89.4433 33.18C94.4833 31.78 96.1233 29.38 96.1233 26.24V25.08ZM90.4033 25.08H97.8433V27.18H90.4033V25.08ZM96.4433 28.44V30.26L89.8433 30.76L89.4633 28.68L96.4433 28.44ZM112.211 32.72H128.971V34.88H112.211V32.72ZM114.231 29.34H127.071V31.44H114.231V29.34ZM114.231 24.76H126.971V26.88H116.871V30.38H114.231V24.76ZM120.531 35.98C124.531 35.98 126.951 37.2 126.951 39.38C126.951 41.56 124.531 42.78 120.531 42.78C116.531 42.78 114.091 41.56 114.091 39.38C114.091 37.2 116.531 35.98 120.531 35.98ZM120.531 37.98C118.051 37.98 116.791 38.44 116.791 39.38C116.791 40.34 118.051 40.76 120.531 40.76C123.011 40.76 124.271 40.34 124.271 39.38C124.271 38.44 123.011 37.98 120.531 37.98ZM136.096 35.169C136.096 36.9351 135.859 38.5592 135.386 40.0412C134.917 41.5232 134.197 42.8963 133.227 44.1605H130.336C130.705 43.6918 131.049 43.1188 131.366 42.4418C131.683 41.7647 131.96 41.026 132.197 40.2259C132.433 39.4209 132.618 38.5876 132.751 37.7259C132.883 36.8641 132.95 36.0118 132.95 35.169C132.95 34.0469 132.834 32.9152 132.602 31.7741C132.374 30.6283 132.062 29.5677 131.664 28.5923C131.271 27.6122 130.828 26.8097 130.336 26.1847H133.227C134.197 27.4489 134.917 28.822 135.386 30.304C135.859 31.786 136.096 33.4077 136.096 35.169ZM147.153 24.52C151.373 24.52 153.853 25.64 153.853 27.68C153.853 29.72 151.373 30.84 147.153 30.84C142.913 30.84 140.453 29.72 140.453 27.68C140.453 25.64 142.913 24.52 147.153 24.52ZM147.153 26.46C144.473 26.46 143.213 26.86 143.213 27.68C143.213 28.54 144.473 28.9 147.153 28.9C149.833 28.9 151.093 28.54 151.093 27.68C151.093 26.86 149.833 26.46 147.153 26.46ZM138.773 31.7H155.513V33.8H138.773V31.7ZM140.693 34.84H153.493V39.6H143.333V41.24H140.713V37.76H150.873V36.82H140.693V34.84ZM140.713 40.66H153.973V42.66H140.713V40.66ZM49.5723 50.16H51.7523V51.32C51.7523 54.82 50.0923 57.96 46.5523 59.1L45.1723 57.04C48.2723 56.04 49.5723 53.64 49.5723 51.32V50.16ZM50.1123 50.16H52.2723V51.32C52.2723 53.5 53.5323 55.76 56.5323 56.72L55.1723 58.78C51.7123 57.66 50.1123 54.64 50.1123 51.32V50.16ZM45.8923 49.34H55.8923V51.46H45.8923V49.34ZM57.3723 48.26H60.0323V59.42H57.3723V48.26ZM59.2923 52.74H62.4923V54.92H59.2923V52.74ZM47.6723 60.22H60.0323V66.78H57.3723V62.36H47.6723V60.22ZM68.1508 49.22H70.3708V50.88C70.3708 54.6 68.7108 57.86 65.0708 59.08L63.6908 56.94C66.8508 55.92 68.1508 53.42 68.1508 50.88V49.22ZM68.7108 49.22H70.8508V50.76C70.8508 53.22 72.0508 55.5 74.9908 56.44L73.6108 58.52C70.1908 57.34 68.7108 54.36 68.7108 50.76V49.22ZM76.6908 48.26H79.3508V59.1H76.6908V48.26ZM73.0708 59.58C76.9908 59.58 79.4108 60.92 79.4108 63.18C79.4108 65.46 76.9908 66.78 73.0708 66.78C69.1508 66.78 66.7308 65.46 66.7308 63.18C66.7308 60.92 69.1508 59.58 73.0708 59.58ZM73.0708 61.64C70.6708 61.64 69.3908 62.14 69.3908 63.18C69.3908 64.22 70.6708 64.74 73.0708 64.74C75.4908 64.74 76.7708 64.22 76.7708 63.18C76.7708 62.14 75.4908 61.64 73.0708 61.64ZM73.3108 51.62H77.0708V53.78H73.3108V51.62ZM82.2292 51.04H91.0892V53.16H82.2292V51.04ZM86.6892 53.98C89.0492 53.98 90.7492 55.8 90.7492 58.4C90.7492 60.98 89.0492 62.8 86.6892 62.8C84.3492 62.8 82.6292 60.98 82.6292 58.4C82.6292 55.8 84.3492 53.98 86.6892 53.98ZM86.6892 56.2C85.6892 56.2 84.9892 57 84.9892 58.4C84.9892 59.8 85.6892 60.58 86.6892 60.58C87.6892 60.58 88.4092 59.8 88.4092 58.4C88.4092 57 87.6892 56.2 86.6892 56.2ZM95.6292 48.26H98.1692V66.78H95.6292V48.26ZM93.4092 55.78H96.4692V57.92H93.4092V55.78ZM91.7492 48.6H94.2292V66H91.7492V48.6ZM85.3892 48.76H88.0092V52.38H85.3892V48.76ZM107.508 50.32H109.808V50.86C109.808 54.12 107.148 56.78 102.448 57.42L101.468 55.34C105.548 54.84 107.508 52.76 107.508 50.86V50.32ZM108.268 50.32H110.568V50.86C110.568 52.76 112.528 54.84 116.608 55.34L115.648 57.42C110.928 56.78 108.268 54.12 108.268 50.86V50.32ZM107.648 60H110.288V66.8H107.648V60ZM100.668 58.48H117.408V60.6H100.668V58.48ZM102.148 49.2H115.888V51.3H102.148V49.2ZM126.346 54.48H129.406V56.64H126.346V54.48ZM122.386 49.86H124.426V52.98C124.426 57.18 123.266 61.28 120.306 63.1L118.706 61.1C121.426 59.42 122.386 56.12 122.386 52.98V49.86ZM122.966 49.86H124.966V52.86C124.966 55.88 125.746 58.96 128.266 60.6L126.826 62.68C123.886 60.86 122.966 56.86 122.966 52.86V49.86ZM132.426 48.26H134.966V66.78H132.426V48.26ZM128.666 48.54H131.146V65.94H128.666V48.54ZM141.145 57.66H143.785V62.86H141.145V57.66ZM147.865 57.66H150.525V62.86H147.865V57.66ZM137.465 62.48H154.225V64.64H137.465V62.48ZM145.825 49.16C149.805 49.16 152.745 51.12 152.745 54.14C152.745 57.16 149.805 59.1 145.825 59.1C141.825 59.1 138.905 57.16 138.905 54.14C138.905 51.12 141.825 49.16 145.825 49.16ZM145.825 51.24C143.245 51.24 141.525 52.3 141.525 54.14C141.525 55.96 143.245 57.04 145.825 57.04C148.405 57.04 150.125 55.96 150.125 54.14C150.125 52.3 148.405 51.24 145.825 51.24ZM158.019 65.1847C157.55 65.1847 157.148 65.0189 156.811 64.6875C156.48 64.3513 156.314 63.9489 156.314 63.4801C156.314 63.0161 156.48 62.6184 156.811 62.2869C157.148 61.9555 157.55 61.7898 158.019 61.7898C158.473 61.7898 158.871 61.9555 159.212 62.2869C159.553 62.6184 159.723 63.0161 159.723 63.4801C159.723 63.7926 159.643 64.0791 159.482 64.3395C159.326 64.5952 159.12 64.8011 158.864 64.9574C158.608 65.1089 158.327 65.1847 158.019 65.1847ZM10.4836 84.28H11.8036C14.0436 84.28 16.0236 84.22 18.3236 83.82L18.5436 85.96C16.1636 86.4 14.1236 86.46 11.8036 86.46H10.4836V84.28ZM10.4636 74.08H17.0036V81.16H13.0636V85.12H10.4836V79.08H14.4436V76.18H10.4636V74.08ZM23.3636 72.26H25.8836V90.78H23.3636V72.26ZM17.7636 78.56H20.6436V80.74H17.7636V78.56ZM19.6036 72.6H22.0636V89.9H19.6036V72.6ZM32.902 73.68H35.062V76.38C35.062 81.14 33.422 85.44 29.742 87.14L28.162 84.94C31.382 83.54 32.902 79.98 32.902 76.38V73.68ZM33.422 73.68H35.582V76.38C35.582 79.8 37.042 83.2 40.202 84.56L38.642 86.7C35.062 85.06 33.422 80.94 33.422 76.38V73.68ZM41.082 72.24H43.762V90.82H41.082V72.24ZM59.5405 72.26H62.2205V90.78H59.5405V72.26ZM47.2405 73.96H57.6405V76.08H47.2405V73.96ZM47.0005 86.56L46.7405 84.38C50.0805 84.38 54.5405 84.32 58.3605 83.86L58.5005 85.8C54.6005 86.46 50.3405 86.54 47.0005 86.56ZM48.8405 75.62H51.4205V84.96H48.8405V75.62ZM53.4605 75.62H56.0405V84.96H53.4605V75.62ZM65.1789 80.56H81.9589V82.5H65.1789V80.56ZM67.0589 83.42H79.9589V87.82H69.7389V89.4H67.0989V86.14H77.3389V85.22H67.0589V83.42ZM67.0989 88.84H80.4789V90.64H67.0989V88.84ZM67.2389 72.58H79.9189V76.94H69.8989V78.46H67.2589V75.28H77.2989V74.36H67.2389V72.58ZM67.2589 77.9H80.2589V79.7H67.2589V77.9ZM100.126 72.26H102.786V85.64H100.126V72.26ZM102.026 77.3H105.246V79.48H102.026V77.3ZM88.9063 80.48H90.4463C94.4663 80.48 96.4663 80.4 98.6863 79.92L98.9463 82.02C96.6863 82.52 94.5663 82.62 90.4463 82.62H88.9063V80.48ZM88.9063 73.72H97.1863V75.86H91.5463V81.62H88.9063V73.72ZM90.8463 88.34H103.446V90.46H90.8463V88.34ZM90.8463 84.24H93.5063V89.42H90.8463V84.24ZM113.745 77.14H117.505V79.26H113.745V77.14ZM113.645 81.76H117.425V83.88H113.645V81.76ZM120.025 72.26H122.565V90.78H120.025V72.26ZM116.205 72.66H118.685V89.96H116.205V72.66ZM112.025 74.44H114.585C114.585 79.7 113.005 83.9 107.845 86.94L106.345 85.08C110.525 82.54 112.025 79.46 112.025 74.98V74.44ZM107.405 74.44H112.925V76.56H107.405V74.44ZM133.943 74.58H138.423V76.58H133.943V74.58ZM133.943 77.96H138.423V79.96H133.943V77.96ZM137.843 72.26H140.503V81.76H137.843V72.26ZM128.263 82.48H140.503V87.44H130.923V89.78H128.283V85.52H137.863V84.52H128.263V82.48ZM128.283 88.52H141.023V90.58H128.283V88.52ZM125.783 73.02H128.423V75.18H131.943V73.02H134.543V81.26H125.783V73.02ZM128.423 77.18V79.18H131.943V77.18H128.423ZM143.422 86.58H160.182V88.74H143.422V86.58ZM150.442 83.08H153.102V87.46H150.442V83.08ZM145.302 73.46H158.302V79.62H147.982V82.74H145.342V77.54H155.662V75.56H145.302V73.46ZM145.342 81.68H158.722V83.82H145.342V81.68ZM49.5723 98.16H51.7523V99.32C51.7523 102.82 50.0923 105.96 46.5523 107.1L45.1723 105.04C48.2723 104.04 49.5723 101.64 49.5723 99.32V98.16ZM50.1123 98.16H52.2723V99.32C52.2723 101.5 53.5323 103.76 56.5323 104.72L55.1723 106.78C51.7123 105.66 50.1123 102.64 50.1123 99.32V98.16ZM45.8923 97.34H55.8923V99.46H45.8923V97.34ZM57.3723 96.26H60.0323V107.42H57.3723V96.26ZM59.2923 100.74H62.4923V102.92H59.2923V100.74ZM47.6723 108.22H60.0323V114.78H57.3723V110.36H47.6723V108.22ZM68.1508 97.22H70.3708V98.88C70.3708 102.6 68.7108 105.86 65.0708 107.08L63.6908 104.94C66.8508 103.92 68.1508 101.42 68.1508 98.88V97.22ZM68.7108 97.22H70.8508V98.76C70.8508 101.22 72.0508 103.5 74.9908 104.44L73.6108 106.52C70.1908 105.34 68.7108 102.36 68.7108 98.76V97.22ZM76.6908 96.26H79.3508V107.1H76.6908V96.26ZM73.0708 107.58C76.9908 107.58 79.4108 108.92 79.4108 111.18C79.4108 113.46 76.9908 114.78 73.0708 114.78C69.1508 114.78 66.7308 113.46 66.7308 111.18C66.7308 108.92 69.1508 107.58 73.0708 107.58ZM73.0708 109.64C70.6708 109.64 69.3908 110.14 69.3908 111.18C69.3908 112.22 70.6708 112.74 73.0708 112.74C75.4908 112.74 76.7708 112.22 76.7708 111.18C76.7708 110.14 75.4908 109.64 73.0708 109.64ZM73.3108 99.62H77.0708V101.78H73.3108V99.62ZM82.2292 99.04H91.0892V101.16H82.2292V99.04ZM86.6892 101.98C89.0492 101.98 90.7492 103.8 90.7492 106.4C90.7492 108.98 89.0492 110.8 86.6892 110.8C84.3492 110.8 82.6292 108.98 82.6292 106.4C82.6292 103.8 84.3492 101.98 86.6892 101.98ZM86.6892 104.2C85.6892 104.2 84.9892 105 84.9892 106.4C84.9892 107.8 85.6892 108.58 86.6892 108.58C87.6892 108.58 88.4092 107.8 88.4092 106.4C88.4092 105 87.6892 104.2 86.6892 104.2ZM95.6292 96.26H98.1692V114.78H95.6292V96.26ZM93.4092 103.78H96.4692V105.92H93.4092V103.78ZM91.7492 96.6H94.2292V114H91.7492V96.6ZM85.3892 96.76H88.0092V100.38H85.3892V96.76ZM107.508 98.32H109.808V98.86C109.808 102.12 107.148 104.78 102.448 105.42L101.468 103.34C105.548 102.84 107.508 100.76 107.508 98.86V98.32ZM108.268 98.32H110.568V98.86C110.568 100.76 112.528 102.84 116.608 103.34L115.648 105.42C110.928 104.78 108.268 102.12 108.268 98.86V98.32ZM107.648 108H110.288V114.8H107.648V108ZM100.668 106.48H117.408V108.6H100.668V106.48ZM102.148 97.2H115.888V99.3H102.148V97.2ZM126.346 102.48H129.406V104.64H126.346V102.48ZM122.386 97.86H124.426V100.98C124.426 105.18 123.266 109.28 120.306 111.1L118.706 109.1C121.426 107.42 122.386 104.12 122.386 100.98V97.86ZM122.966 97.86H124.966V100.86C124.966 103.88 125.746 106.96 128.266 108.6L126.826 110.68C123.886 108.86 122.966 104.86 122.966 100.86V97.86ZM132.426 96.26H134.966V114.78H132.426V96.26ZM128.666 96.54H131.146V113.94H128.666V96.54ZM141.145 105.66H143.785V110.86H141.145V105.66ZM147.865 105.66H150.525V110.86H147.865V105.66ZM137.465 110.48H154.225V112.64H137.465V110.48ZM145.825 97.16C149.805 97.16 152.745 99.12 152.745 102.14C152.745 105.16 149.805 107.1 145.825 107.1C141.825 107.1 138.905 105.16 138.905 102.14C138.905 99.12 141.825 97.16 145.825 97.16ZM145.825 99.24C143.245 99.24 141.525 100.3 141.525 102.14C141.525 103.96 143.245 105.04 145.825 105.04C148.405 105.04 150.125 103.96 150.125 102.14C150.125 100.3 148.405 99.24 145.825 99.24ZM158.019 113.185C157.55 113.185 157.148 113.019 156.811 112.688C156.48 112.351 156.314 111.949 156.314 111.48C156.314 111.016 156.48 110.618 156.811 110.287C157.148 109.955 157.55 109.79 158.019 109.79C158.473 109.79 158.871 109.955 159.212 110.287C159.553 110.618 159.723 111.016 159.723 111.48C159.723 111.793 159.643 112.079 159.482 112.339C159.326 112.595 159.12 112.801 158.864 112.957C158.608 113.109 158.327 113.185 158.019 113.185Z" fill="#B8B8B8"/>
</svg>
