<svg width="16" height="16" viewBox="0 0 16 16" fill="none" xmlns="http://www.w3.org/2000/svg">
<path d="M14.5306 13.4694L11.5625 10.5C12.4524 9.34033 12.8679 7.88553 12.7247 6.43075C12.5814 4.97597 11.8902 3.63014 10.7911 2.66628C9.69209 1.70242 8.26757 1.19269 6.80654 1.24051C5.34551 1.28833 3.95736 1.8901 2.9237 2.92376C1.89004 3.95742 1.28827 5.34557 1.24045 6.8066C1.19263 8.26764 1.70236 9.69216 2.66622 10.7912C3.63008 11.8902 4.97591 12.5815 6.43069 12.7247C7.88547 12.868 9.34027 12.4525 10.5 11.5625L13.4706 14.5338C13.5404 14.6036 13.6232 14.6589 13.7143 14.6966C13.8055 14.7344 13.9032 14.7538 14.0019 14.7538C14.1005 14.7538 14.1982 14.7344 14.2894 14.6966C14.3805 14.6589 14.4633 14.6036 14.5331 14.5338C14.6029 14.464 14.6582 14.3812 14.696 14.29C14.7337 14.1989 14.7532 14.1012 14.7532 14.0025C14.7532 13.9039 14.7337 13.8062 14.696 13.715C14.6582 13.6239 14.6029 13.5411 14.5331 13.4713L14.5306 13.4694ZM2.74998 7.00004C2.74998 6.15947 2.99923 5.33777 3.46623 4.63886C3.93323 3.93995 4.59698 3.39522 5.37357 3.07355C6.15016 2.75188 7.00469 2.66771 7.82911 2.8317C8.65353 2.99569 9.41081 3.40046 10.0052 3.99483C10.5996 4.58921 11.0043 5.34648 11.1683 6.1709C11.3323 6.99532 11.2481 7.84986 10.9265 8.62644C10.6048 9.40303 10.0601 10.0668 9.36115 10.5338C8.66224 11.0008 7.84055 11.25 6.99998 11.25C5.87316 11.2489 4.79283 10.8007 3.99605 10.004C3.19927 9.20718 2.75113 8.12685 2.74998 7.00004Z" fill="#4A3C3C"/>
</svg>
