<svg width="72" height="64" viewBox="0 0 72 64" fill="none" xmlns="http://www.w3.org/2000/svg">
<path d="M28 19.5C28 16.6716 28 15.2574 28.8787 14.3787C29.7574 13.5 31.1716 13.5 34 13.5H38C40.8284 13.5 42.2426 13.5 43.1213 14.3787C44 15.2574 44 16.6716 44 19.5V26.3276C44 29.0109 44 30.3525 43.1557 30.7629C42.3114 31.1733 41.2565 30.3444 39.1465 28.6866L38.4713 28.156C37.2849 27.2239 36.6917 26.7578 36 26.7578C35.3083 26.7578 34.7151 27.2239 33.5287 28.156L32.8535 28.6866C30.7435 30.3444 29.6886 31.1733 28.8443 30.7629C28 30.3525 28 29.0109 28 26.3276V19.5Z" stroke="black" stroke-width="1.5"/>
<path d="M21.4818 40.04H22.5618V41.075C22.5618 44.03 19.8168 46.325 17.1018 46.94L16.5468 45.905C18.9318 45.455 21.4818 43.385 21.4818 41.075V40.04ZM21.7068 40.04H22.7868V41.075C22.7868 43.4 25.3518 45.455 27.7218 45.905L27.1668 46.94C24.4668 46.325 21.7068 44.045 21.7068 41.075V40.04ZM16.0518 49.82H28.3368V50.84H16.0518V49.82ZM31.3056 40.49H39.9156V41.51H31.3056V40.49ZM29.8506 49.745H42.1056V50.795H29.8506V49.745ZM39.3756 40.49H40.5906V42.155C40.5906 44.15 40.5906 45.995 40.0206 48.77L38.7906 48.65C39.3756 46.04 39.3756 44.105 39.3756 42.155V40.49ZM39.6906 44.24V45.17L31.1256 45.635L30.9456 44.6L39.6906 44.24ZM53.8794 39.11H55.0644V46.625H53.8794V39.11ZM51.7344 42.32H54.2994V43.34H51.7344V42.32ZM50.8944 39.35H52.0644V46.505H50.8944V39.35ZM46.1844 47.255H47.4144V48.8H53.8644V47.255H55.0644V52.49H46.1844V47.255ZM47.4144 49.775V51.47H53.8644V49.775H47.4144ZM44.2644 45.17H45.1344C47.0394 45.17 48.4494 45.095 50.1144 44.765L50.2344 45.77C48.5244 46.115 47.0994 46.175 45.1344 46.175H44.2644V45.17ZM44.2344 39.905H49.3344V43.415H45.4644V45.95H44.2644V42.47H48.1344V40.91H44.2344V39.905Z" fill="black"/>
</svg>
